# xmcd
#
# Track frame offsets:
#	150
#	16242
#	35912
#	69191
#	105768
#	147894
#	169314
#	186936
#	215196
#	259832
#	301937
#
# Disc length: 4646
#
# Revision: 1
# Processed by: cddbd v1.5.1PL0 Copyright (c) Steve Scherf et al.
# Submitted via: AltoMP3_Maker 3.0
# Normalized: r0:TDELIM( - )
#
DISCID=9912240b
DTITLE=Various Electronica - Psychotic Dance Anthems
DYEAR=1900
DGENRE=
TTITLE0=Orbital - Satan (Industry Standard)
TTITLE1=Anthony Mad - I Guess Its True
TTITLE2=Infected Mushroom - Symphonatic
TTITLE3=Infected Mushroom - Deeply Disturbed
TTITLE4=Astral Projection - Mahadeva
TTITLE5=Sasha and John Digweed - Luzon
TTITLE6=Fatboy Slim - In Heaven
TTITLE7=Infected Mushroom - Merlin
TTITLE8=Hallucinogen - Shamanix
TTITLE9=Astral Projection - Nilaya
TTITLE10=Shpongle - Divine Moments of Truth
EXTD=
EXTT0=
EXTT1=
EXTT2=
EXTT3=
EXTT4=
EXTT5=
EXTT6=
EXTT7=
EXTT8=
EXTT9=
EXTT10=
PLAYORDER=
